<svg width="64" height="64" version="1.1" xmlns="http://www.w3.org/2000/svg" desc="Created with imagetracer.js version 1.2.6" ><path fill="rgb(6,6,6)" stroke="rgb(6,6,6)" stroke-width="1" opacity="1" d="M 21.5 0 L 24 0.5 Q 21.9 3.8 21.5 0 Z " /><path fill="rgb(6,6,6)" stroke="rgb(6,6,6)" stroke-width="1" opacity="1" d="M 1.5 3 L 3 7.5 L 2 7.5 L 1.5 3 Z " /><path fill="rgb(6,6,6)" stroke="rgb(6,6,6)" stroke-width="1" opacity="1" d="M 4 6 L 6 6.5 L 4 7.5 L 4 6 Z " /><path fill="rgb(6,6,6)" stroke="rgb(6,6,6)" stroke-width="1" opacity="1" d="M 3.5 11 L 4.5 13 L 3.5 11 Z " /><path fill="rgb(6,6,6)" stroke="rgb(6,6,6)" stroke-width="1" opacity="1" d="M 2.5 15 L 5 15.5 L 2.5 16 L 2.5 15 Z " /><path fill="rgb(6,6,6)" stroke="rgb(6,6,6)" stroke-width="1" opacity="1" d="M 1 18 L 3 18 Q 1.9 20.7 4.5 20 L 4 21.5 L 3.5 24 L 3 20 Q 0 21 1 18 Z " /><path fill="rgb(6,6,6)" stroke="rgb(6,6,6)" stroke-width="1" opacity="1" d="M 0 21 L 2 21.5 L 0.5 24 L 0 21 Z " /><path fill="rgb(6,6,6)" stroke="rgb(6,6,6)" stroke-width="1" opacity="1" d="M 40.5 26 L 42 28.5 L 41 28.5 L 40.5 26 Z " /><path fill="rgb(6,6,6)" stroke="rgb(6,6,6)" stroke-width="1" opacity="1" d="M 44.5 26 L 43.5 28 L 44.5 26 Z " /><path fill="rgb(6,6,6)" stroke="rgb(6,6,6)" stroke-width="1" opacity="1" d="M 1.5 29 Q 3.8 28.3 3 30.5 L 1.5 29 Z " /><path fill="rgb(6,6,6)" stroke="rgb(6,6,6)" stroke-width="1" opacity="1" d="M 36.5 29 L 34.5 32 L 33.5 30 Q 35 32.5 36.5 29 Z " /><path fill="rgb(6,6,6)" stroke="rgb(6,6,6)" stroke-width="1" opacity="1" d="M 0.5 31 L 1.5 33 Q -1.3 33.7 0.5 31 Z " /><path fill="rgb(6,6,6)" stroke="rgb(6,6,6)" stroke-width="1" opacity="1" d="M 27 33 L 29 33.5 L 27 34.5 L 27 33 Z " /><path fill="rgb(6,6,6)" stroke="rgb(6,6,6)" stroke-width="1" opacity="1" d="M 19.5 34 L 20.5 36 L 19.5 34 Z " /><path fill="rgb(6,6,6)" stroke="rgb(6,6,6)" stroke-width="1" opacity="1" d="M 15.5 35 L 13.5 38 L 12 37.5 L 15.5 35 Z " /><path fill="rgb(6,6,6)" stroke="rgb(6,6,6)" stroke-width="1" opacity="1" d="M 17.5 35 L 19.5 38 L 17 37 Q 18.1 39.7 15.5 39 L 17 36.5 L 17.5 35 Z " /><path fill="rgb(6,6,6)" stroke="rgb(6,6,6)" stroke-width="1" opacity="1" d="M 34.5 35 L 33.5 37 L 34.5 35 Z " /><path fill="rgb(6,6,6)" stroke="rgb(6,6,6)" stroke-width="1" opacity="1" d="M 43.5 35 L 44.5 37 L 43.5 35 Z " /><path fill="rgb(6,6,6)" stroke="rgb(6,6,6)" stroke-width="1" opacity="1" d="M 37 36 L 39 36.5 L 37 37.5 L 37 36 Z " /><path fill="rgb(6,6,6)" stroke="rgb(6,6,6)" stroke-width="1" opacity="1" d="M 41.5 38 L 40.5 40 L 41.5 38 Z " /><path fill="rgb(6,6,6)" stroke="rgb(6,6,6)" stroke-width="1" opacity="1" d="M 31.5 39 L 36 39.5 L 34 42.5 L 35 46 Q 31.7 47.3 33 42.5 L 31.5 39 Z " /><path fill="rgb(6,6,6)" stroke="rgb(6,6,6)" stroke-width="1" opacity="1" d="M 43.5 39 L 42.5 41 L 43.5 39 Z " /><path fill="rgb(6,6,6)" stroke="rgb(6,6,6)" stroke-width="1" opacity="1" d="M 1.5 40 Q 3.8 39.3 3 41.5 L 1.5 40 Z " /><path fill="rgb(6,6,6)" stroke="rgb(6,6,6)" stroke-width="1" opacity="1" d="M 14.5 41 Q 17.5 42.5 14.5 44 L 14.5 41 Z " /><path fill="rgb(6,6,6)" stroke="rgb(6,6,6)" stroke-width="1" opacity="1" d="M 20.5 41 L 21 42.5 L 20.5 45 L 18.5 42 L 20.5 41 Z " /><path fill="rgb(6,6,6)" stroke="rgb(6,6,6)" stroke-width="1" opacity="1" d="M 9.5 42 L 8.5 44 L 9.5 42 Z " /><path fill="rgb(6,6,6)" stroke="rgb(6,6,6)" stroke-width="1" opacity="1" d="M 1.5 43 L 0.5 45 L 1.5 43 Z " /><path fill="rgb(6,6,6)" stroke="rgb(6,6,6)" stroke-width="1" opacity="1" d="M 39.5 43 L 42.5 47 Q 40.3 47.8 41 45.5 L 39.5 43 Z " /><path fill="rgb(6,6,6)" stroke="rgb(6,6,6)" stroke-width="1" opacity="1" d="M 37.5 44 L 38.5 46 L 37.5 44 Z " /><path fill="rgb(6,6,6)" stroke="rgb(6,6,6)" stroke-width="1" opacity="1" d="M 19.5 47 L 20 49.5 L 18 48.5 L 19.5 47 Z " /><path fill="rgb(6,6,6)" stroke="rgb(6,6,6)" stroke-width="1" opacity="1" d="M 14.5 48 L 16 50.5 L 14 50.5 L 13.5 52 L 13 50.5 L 14.5 48 Z " /><path fill="rgb(6,6,6)" stroke="rgb(6,6,6)" stroke-width="1" opacity="1" d="M 22.5 48 L 22 49.5 L 24 52.5 L 20 51.5 L 22.5 48 Z " /><path fill="rgb(6,6,6)" stroke="rgb(6,6,6)" stroke-width="1" opacity="1" d="M 37.5 48 L 38 50 L 36 49.5 L 37.5 48 Z " /><path fill="rgb(6,6,6)" stroke="rgb(6,6,6)" stroke-width="1" opacity="1" d="M 48 49 L 50 49.5 L 48 50.5 L 48 49 Z " /><path fill="rgb(6,6,6)" stroke="rgb(6,6,6)" stroke-width="1" opacity="1" d="M 8.5 51 L 7.5 53 L 8.5 51 Z " /><path fill="rgb(6,6,6)" stroke="rgb(6,6,6)" stroke-width="1" opacity="1" d="M 10.5 52 L 11.5 54 L 10.5 52 Z " /><path fill="rgb(6,6,6)" stroke="rgb(6,6,6)" stroke-width="1" opacity="1" d="M 18.5 54 L 17.5 56 L 16 55.5 L 18.5 54 Z " /><path fill="rgb(6,6,6)" stroke="rgb(6,6,6)" stroke-width="1" opacity="1" d="M 13.5 56 L 15.5 60 L 17.5 59 L 16.5 61 L 13 58.5 L 13.5 56 Z " /><path fill="rgb(6,6,6)" stroke="rgb(6,6,6)" stroke-width="1" opacity="1" d="M 27.5 56 L 28.5 58 L 27.5 56 Z " /><path fill="rgb(6,6,6)" stroke="rgb(6,6,6)" stroke-width="1" opacity="1" d="M 25.5 57 L 26.5 59 L 25.5 57 Z " /><path fill="rgb(6,6,6)" stroke="rgb(6,6,6)" stroke-width="1" opacity="1" d="M 31.5 58 L 32 59.5 L 30.5 62 L 30 60.5 L 31.5 58 Z " /><path fill="rgb(6,6,6)" stroke="rgb(6,6,6)" stroke-width="1" opacity="1" d="M 36.5 58 L 37.5 60 L 34.5 61 L 34.5 60 Q 37 60.7 36.5 58 Z " /><path fill="rgb(6,6,6)" stroke="rgb(6,6,6)" stroke-width="1" opacity="1" d="M 53.5 58 L 55 61 L 52 60.5 L 54 59.5 L 53.5 58 Z " /><path fill="rgb(6,6,6)" stroke="rgb(6,6,6)" stroke-width="1" opacity="1" d="M 7.5 62 L 10 63.5 L 8.5 64 L 7.5 62 Z " /><path fill="rgb(205,205,205)" stroke="rgb(205,205,205)" stroke-width="1" opacity="1" d="M 9 0 L 12.5 1 L 14.5 0 L 14.5 2 L 17 2 Q 15.9 -0.7 18.5 0 L 22 6.5 L 20.5 9 L 20 7 L 16 8.5 L 15 15 L 18 16.5 L 17 23.5 L 17.5 25 L 16 22.5 L 16.5 21 L 14.5 20 L 14 23 Q 10.6 22.3 9.5 25 L 11 22.5 L 10 21.5 L 13 16.5 L 11 10.5 L 13 6.5 L 11 6 L 9 0 Z M 18 2 L 12 3 L 14 7 Q 13 9 16 8 L 17 6 Q 21 4 18 2 Z M 12 20 L 13 22 Q 14 19 12 20 Z " /><path fill="rgb(205,205,205)" stroke="rgb(205,205,205)" stroke-width="1" opacity="1" d="M 34.5 0 L 37.5 4 L 34.5 0 Z " /><path fill="rgb(205,205,205)" stroke="rgb(205,205,205)" stroke-width="1" opacity="1" d="M 29.5 3 L 32 3.5 Q 29.3 5.3 33.5 7 Q 34.8 4.8 36 7.5 L 34 7.5 L 35 9.5 L 33.5 9 L 31.5 8 L 29.5 9 L 25.5 8 L 23 9.5 Q 21.9 6.2 24.5 7 L 26.5 7 L 29 6.5 L 28.5 5 L 30 4.5 L 29.5 3 Z " /><path fill="rgb(205,205,205)" stroke="rgb(205,205,205)" stroke-width="1" opacity="1" d="M 8.5 4 L 9 6 L 7 5.5 L 8.5 4 Z " /><path fill="rgb(205,205,205)" stroke="rgb(205,205,205)" stroke-width="1" opacity="1" d="M 6.5 7 L 8.5 11 L 9.5 8 L 11 15.5 L 9 15.5 L 8 18.5 L 8.5 20 L 6 19.5 Q 9 17.5 8 11.5 L 6.5 7 Z " /><path fill="rgb(205,205,205)" stroke="rgb(205,205,205)" stroke-width="1" opacity="1" d="M 33.5 11 L 35 12.5 L 33.5 15 L 35 15.5 L 34 17.5 L 35.5 20 L 33.5 19 L 32.5 20 L 29 17.5 Q 30.1 20.8 27.5 20 L 25.5 19 L 23.5 21 L 19 16.5 L 21 16 L 21.5 14 L 22 16 L 24.5 17 L 30.5 15 L 32 15.5 L 31 13.5 L 34 12.5 L 33.5 11 Z " /><path fill="rgb(205,205,205)" stroke="rgb(205,205,205)" stroke-width="1" opacity="1" d="M 35.5 21 L 36.5 23 L 35.5 21 Z " /><path fill="rgb(205,205,205)" stroke="rgb(205,205,205)" stroke-width="1" opacity="1" d="M 26.5 23 L 28 23.5 L 26 24 Q 27.1 26.7 24.5 26 L 26.5 23 Z " /><path fill="rgb(205,205,205)" stroke="rgb(205,205,205)" stroke-width="1" opacity="1" d="M 32.5 24 L 35.5 25 L 37 24.5 L 33.5 26 L 31 25.5 L 32.5 24 Z " /><path fill="rgb(205,205,205)" stroke="rgb(205,205,205)" stroke-width="1" opacity="1" d="M 7.5 25 L 8 26.5 L 6 27.5 L 7.5 25 Z " /><path fill="rgb(205,205,205)" stroke="rgb(205,205,205)" stroke-width="1" opacity="1" d="M 22.5 27 L 25 28.5 L 22 29.5 Q 22.8 32.1 19.5 31 L 18.5 29 L 22.5 27 Z " /><path fill="rgb(205,205,205)" stroke="rgb(205,205,205)" stroke-width="1" opacity="1" d="M 4.5 32 Q 6.8 31.3 6 33.5 L 4.5 32 Z " /><path fill="rgb(205,205,205)" stroke="rgb(205,205,205)" stroke-width="1" opacity="1" d="M 9.5 33 L 9 34.5 L 8.5 36 L 8 34.5 L 9.5 33 Z " /><path fill="rgb(205,205,205)" stroke="rgb(205,205,205)" stroke-width="1" opacity="1" d="M 14.5 33 L 15 35 L 13 34.5 L 14.5 33 Z " /><path fill="rgb(205,205,205)" stroke="rgb(205,205,205)" stroke-width="1" opacity="1" d="M 6.5 35 L 7 36.5 L 5.5 39 L 5 37.5 L 6.5 35 Z " /><path fill="rgb(205,205,205)" stroke="rgb(205,205,205)" stroke-width="1" opacity="1" d="M 7.5 39 L 8 40.5 Q 3.8 42.8 5.5 45 L 4.5 42 Q 1.9 42.7 3 40 Q 5.7 38.9 5 41.5 L 6 41.5 L 7.5 39 Z " /><path fill="rgb(205,205,205)" stroke="rgb(205,205,205)" stroke-width="1" opacity="1" d="M 41.5 54 L 44 57.5 L 42 56.5 L 41.5 54 Z " /><path fill="rgb(205,205,205)" stroke="rgb(205,205,205)" stroke-width="1" opacity="1" d="M 56.5 56 L 57.5 58 L 56.5 56 Z " /><path fill="rgb(220,220,220)" stroke="rgb(220,220,220)" stroke-width="1" opacity="1" d="M 15.5 0 L 16.5 2 L 14 1.5 L 15.5 0 Z " /><path fill="rgb(220,220,220)" stroke="rgb(220,220,220)" stroke-width="1" opacity="1" d="M 35.5 0 L 39 1.5 L 36.5 2 L 35.5 0 Z " /><path fill="rgb(220,220,220)" stroke="rgb(220,220,220)" stroke-width="1" opacity="1" d="M 32.5 2 L 33 5 L 30.5 6 L 32 3.5 L 32.5 2 Z " /><path fill="rgb(220,220,220)" stroke="rgb(220,220,220)" stroke-width="1" opacity="1" d="M 13 3 L 17 3 L 17 4.5 Q 14.7 5.8 17.5 7 Q 20.8 5.9 20 8.5 L 21 8.5 L 22 6.5 L 21 4.5 L 22 4.5 L 23 6.5 L 23 8.5 L 23.5 10 Q 24.8 7.3 29 7.5 L 25 5.5 L 27.5 5 L 29.5 7 L 31.5 8 Q 33.8 3.8 36 5.5 Q 35.3 3.3 37.5 4 L 35.5 8 L 39 7 L 38.5 9 L 37 8.5 Q 36.2 11.1 39.5 10 L 39.5 11 L 36 11 L 36 17.5 L 37.5 20 L 34.5 21 L 34.5 20 L 36 19.5 L 34 16.5 L 34.5 15 L 33 14.5 L 33.5 13 L 31 13.5 L 32 15.5 L 30.5 15 L 24.5 17 L 22 16 L 21.5 14 L 21 16 L 18.5 17 Q 14.8 15 16.5 13 Q 14.3 13.8 15 11.5 L 17 7.5 L 15.5 8 Q 13.3 8.8 14 6.5 L 12 6.5 L 13 3 Z M 34 7 L 32 9 L 35 10 L 34 7 Z " /><path fill="rgb(220,220,220)" stroke="rgb(220,220,220)" stroke-width="1" opacity="1" d="M 7.5 6 L 8 7.5 L 6.5 10 L 6 8.5 L 7.5 6 Z " /><path fill="rgb(220,220,220)" stroke="rgb(220,220,220)" stroke-width="1" opacity="1" d="M 6.5 11 L 7 13.5 L 6 13.5 L 6.5 11 Z " /><path fill="rgb(220,220,220)" stroke="rgb(220,220,220)" stroke-width="1" opacity="1" d="M 13.5 15 L 12.5 17 L 13.5 15 Z " /><path fill="rgb(220,220,220)" stroke="rgb(220,220,220)" stroke-width="1" opacity="1" d="M 8.5 18 L 7.5 20 L 8.5 18 Z " /><path fill="rgb(220,220,220)" stroke="rgb(220,220,220)" stroke-width="1" opacity="1" d="M 9 22 L 11 22.5 L 8 24.5 L 9 22 Z " /><path fill="rgb(220,220,220)" stroke="rgb(220,220,220)" stroke-width="1" opacity="1" d="M 13.5 35 L 12.5 37 L 13.5 35 Z " /><path fill="rgb(220,220,220)" stroke="rgb(220,220,220)" stroke-width="1" opacity="1" d="M 9.5 38 L 8.5 40 L 9.5 38 Z " /><path fill="rgb(220,220,220)" stroke="rgb(220,220,220)" stroke-width="1" opacity="1" d="M 56.5 39 L 57.5 41 L 56.5 39 Z " /><path fill="rgb(220,220,220)" stroke="rgb(220,220,220)" stroke-width="1" opacity="1" d="M 4.5 42 L 5.5 44 L 4.5 42 Z " /><path fill="rgb(220,220,220)" stroke="rgb(220,220,220)" stroke-width="1" opacity="1" d="M 55.5 43 L 55.5 46 Q 52.5 44.5 55.5 43 Z " /><path fill="rgb(220,220,220)" stroke="rgb(220,220,220)" stroke-width="1" opacity="1" d="M 53.5 46 L 52.5 48 L 51 47.5 L 53.5 46 Z " /><path fill="rgb(220,220,220)" stroke="rgb(220,220,220)" stroke-width="1" opacity="1" d="M 61.5 48 L 62.5 50 L 61.5 48 Z " /><path fill="rgb(220,220,220)" stroke="rgb(220,220,220)" stroke-width="1" opacity="1" d="M 43.5 60 L 44 64 L 42 63.5 L 43.5 60 Z " /><path fill="rgb(235,235,235)" stroke="rgb(235,235,235)" stroke-width="1" opacity="1" d="M 7.5 0 L 8.5 2 L 7.5 0 Z " /><path fill="rgb(235,235,235)" stroke="rgb(235,235,235)" stroke-width="1" opacity="1" d="M 19.5 0 L 20.5 2 L 19.5 0 Z " /><path fill="rgb(235,235,235)" stroke="rgb(235,235,235)" stroke-width="1" opacity="1" d="M 39 0 L 44.5 0 L 45 1.5 Q 47.3 2.7 44.5 4 L 41 3 L 42 5.5 L 40 8.5 L 40.5 10 Q 37.9 10.8 39 7.5 L 38 2.5 L 39 0 Z " /><path fill="rgb(235,235,235)" stroke="rgb(235,235,235)" stroke-width="1" opacity="1" d="M 61.5 3 L 60.5 5 L 61.5 3 Z " /><path fill="rgb(235,235,235)" stroke="rgb(235,235,235)" stroke-width="1" opacity="1" d="M 35.5 5 L 38 8.5 L 36 7.5 L 35.5 5 Z " /><path fill="rgb(235,235,235)" stroke="rgb(235,235,235)" stroke-width="1" opacity="1" d="M 34.5 8 L 33.5 10 L 34.5 8 Z " /><path fill="rgb(235,235,235)" stroke="rgb(235,235,235)" stroke-width="1" opacity="1" d="M 61.5 8 L 60.5 10 L 61.5 8 Z " /><path fill="rgb(235,235,235)" stroke="rgb(235,235,235)" stroke-width="1" opacity="1" d="M 36 11 L 39 11.5 L 38.5 14 L 37 13.5 L 36.5 18 L 36 11 Z " /><path fill="rgb(235,235,235)" stroke="rgb(235,235,235)" stroke-width="1" opacity="1" d="M 44.5 11 L 47 12.5 L 44 13 L 44.5 11 Z " /><path fill="rgb(235,235,235)" stroke="rgb(235,235,235)" stroke-width="1" opacity="1" d="M 44.5 14 L 45 16 L 47 16.5 L 45.5 17 L 44.5 14 Z " /><path fill="rgb(235,235,235)" stroke="rgb(235,235,235)" stroke-width="1" opacity="1" d="M 39.5 18 L 36.5 22 L 36 20 L 39.5 18 Z " /><path fill="rgb(235,235,235)" stroke="rgb(235,235,235)" stroke-width="1" opacity="1" d="M 54.5 18 L 53.5 22 Q 50 20 54.5 18 Z " /><path fill="rgb(235,235,235)" stroke="rgb(235,235,235)" stroke-width="1" opacity="1" d="M 51.5 28 L 53.5 29 L 55 28.5 L 54.5 31 L 51.5 29 L 51.5 28 Z " /><path fill="rgb(235,235,235)" stroke="rgb(235,235,235)" stroke-width="1" opacity="1" d="M 49.5 36 L 50.5 38 L 49.5 36 Z " /><path fill="rgb(235,235,235)" stroke="rgb(235,235,235)" stroke-width="1" opacity="1" d="M 60.5 36 L 63 36.5 L 60.5 37 L 60.5 36 Z " /><path fill="rgb(235,235,235)" stroke="rgb(235,235,235)" stroke-width="1" opacity="1" d="M 58.5 37 L 63 38.5 Q 61.8 41.3 60.5 39 L 58.5 37 Z " /><path fill="rgb(235,235,235)" stroke="rgb(235,235,235)" stroke-width="1" opacity="1" d="M 63.5 40 L 60.5 44 L 60 42 L 63.5 40 Z " /><path fill="rgb(235,235,235)" stroke="rgb(235,235,235)" stroke-width="1" opacity="1" d="M 49.5 45 L 51 47.5 L 48 47.5 L 49.5 45 Z " /><path fill="rgb(235,235,235)" stroke="rgb(235,235,235)" stroke-width="1" opacity="1" d="M 59.5 46 L 60.5 48 L 59.5 46 Z " /><path fill="rgb(235,235,235)" stroke="rgb(235,235,235)" stroke-width="1" opacity="1" d="M 52.5 48 L 55 48.5 Q 52.9 51.8 52.5 48 Z " /><path fill="rgb(235,235,235)" stroke="rgb(235,235,235)" stroke-width="1" opacity="1" d="M 46 52 L 48 52.5 L 47.5 55 L 46 52 Z " /><path fill="rgb(235,235,235)" stroke="rgb(235,235,235)" stroke-width="1" opacity="1" d="M 43.5 58 L 45 60.5 L 43 59.5 L 43.5 58 Z " /><path fill="rgb(252,252,252)" stroke="rgb(252,252,252)" stroke-width="1" opacity="1" d="M 45.5 0 L 48.5 1 L 50 0.5 L 50.5 2 L 51 0 Q 56.2 -2.1 55 2.5 L 58 10 L 62 8.5 L 60 8 L 60.5 6 L 61.5 7 L 64 5.5 L 62 9.5 L 64 10 L 64 33.5 L 63 34.5 L 64 39.5 L 64 43.5 L 63.5 46 L 61 40 L 59 39.5 L 60.5 39 Q 61.8 41.3 63 38.5 Q 64.3 34.8 60.5 36 L 60.5 37 L 62 37.5 L 60.5 38 L 58 36.5 L 60 35.5 L 56.5 31 L 55 32.5 L 56.5 35 L 53.5 31 Q 54.8 33.3 56 30.5 L 52 27.5 L 51.5 26 L 49.5 26 Q 47.3 26.8 48 24.5 L 48.5 23 Q 44.1 24.5 45 21.5 Q 48.5 19.5 48 13.5 L 46.5 14 L 45 13.5 L 47 12.5 L 42.5 11 Q 39.8 12.3 42 13.5 L 42.5 15 L 44 14.5 L 44.5 16 L 46.5 15 L 46.5 16 L 44 17.5 L 45 19.5 L 42.5 25 L 37 22.5 L 40 20.5 L 37 16.5 L 38 14 Q 40.7 15.1 40 12.5 L 43 7.5 L 42 4 Q 47.2 6.1 46 1.5 L 45.5 0 Z M 47 9 L 45 11 L 47 11 L 47 9 Z M 43 17 L 42 19 L 41 18 L 39 19 L 43 23 L 44 20 L 43 17 Z M 50 18 L 54 22 L 54 20 Q 53 17 50 18 Z M 49 19 L 47 22 L 49 21 L 49 19 Z M 50 21 L 51 23 L 53 23 L 50 21 Z M 55 23 L 54 25 L 56 24 L 55 23 Z " /><path fill="rgb(252,252,252)" stroke="rgb(252,252,252)" stroke-width="1" opacity="1" d="M 61 0 Q 65.1 -1.7 64 2.5 L 61 4.5 L 61 2.5 L 61 0 Z " /><path fill="rgb(252,252,252)" stroke="rgb(252,252,252)" stroke-width="1" opacity="1" d="M 50.5 32 L 50.5 34 L 52 34.5 L 48.5 35 L 46 33.5 L 50.5 32 Z " /><path fill="rgb(252,252,252)" stroke="rgb(252,252,252)" stroke-width="1" opacity="1" d="M 45 35 Q 47.7 33.9 47 36.5 L 50.5 36 L 53 36.5 L 49.5 38 Q 46.2 36.9 47 39.5 L 49 39.5 L 50.5 43 L 52 42.5 Q 52.8 44.8 50.5 44 L 51.5 47 L 50 47.5 L 50.5 49 L 46 45.5 L 45 43.5 L 47 43.5 L 46.5 40 L 45.5 42 L 45 39.5 L 45 37.5 L 45 35 Z M 49 45 L 50 47 Q 51 44 49 45 Z " /><path fill="rgb(252,252,252)" stroke="rgb(252,252,252)" stroke-width="1" opacity="1" d="M 55 38 L 57 38.5 Q 54.5 40 58 41.5 L 57 44.5 L 58 48 L 56 48.5 L 57 51.5 Q 58 56 55.5 57 L 55 53 L 52 51.5 Q 51.3 49.3 53.5 50 L 53 48.5 L 54 46.5 L 53.5 45 L 55 44.5 L 53 43.5 L 55 39.5 L 55 38 Z M 55 42 L 55 44 L 57 43 L 55 42 Z M 56 45 L 57 47 Q 58 44 56 45 Z " /><path fill="rgb(252,252,252)" stroke="rgb(252,252,252)" stroke-width="1" opacity="1" d="M 60.5 46 L 62 47.5 L 61 50.5 L 61.5 52 Q 62.8 49.8 64 52.5 L 64 54.5 L 63 56.5 L 64 58.5 L 64 60.5 L 63.5 64 L 63 60 Q 59.2 60.8 58 57.5 L 59 50 L 61 49.5 L 59 49 L 60.5 46 Z M 61 56 L 61 59 L 62 59 Q 63 55 61 56 Z " /><path fill="rgb(252,252,252)" stroke="rgb(252,252,252)" stroke-width="1" opacity="1" d="M 47.5 53 L 47 54.5 L 46 62.5 L 44.5 64 L 45 62.5 Q 44.1 55.6 47.5 53 Z " /><path fill="rgb(252,252,252)" stroke="rgb(252,252,252)" stroke-width="1" opacity="1" d="M 20.5 55 L 21 56.5 L 19 57.5 L 20.5 55 Z " /><path fill="rgb(2,2,2)" stroke="rgb(2,2,2)" stroke-width="1" opacity="1" d="M 22.5 0 L 25 0.5 Q 22.9 3.8 22.5 0 Z " /><path fill="rgb(2,2,2)" stroke="rgb(2,2,2)" stroke-width="1" opacity="1" d="M 27 2 L 29 2.5 L 27 3.5 L 27 2 Z " /><path fill="rgb(2,2,2)" stroke="rgb(2,2,2)" stroke-width="1" opacity="1" d="M 56.5 2 L 58 4.5 L 57 4.5 L 56.5 2 Z " /><path fill="rgb(2,2,2)" stroke="rgb(2,2,2)" stroke-width="1" opacity="1" d="M 0.5 5 L 2 7.5 L 0 6.5 L 0.5 5 Z " /><path fill="rgb(2,2,2)" stroke="rgb(2,2,2)" stroke-width="1" opacity="1" d="M 3 8 L 6 9.5 Q 4.5 12.5 3 9.5 L 3 8 Z " /><path fill="rgb(2,2,2)" stroke="rgb(2,2,2)" stroke-width="1" opacity="1" d="M 1.5 9 L 2 12 L 4 12.5 L 2.5 15 L 1.5 12 L 0 12.5 L 1.5 9 Z " /><path fill="rgb(2,2,2)" stroke="rgb(2,2,2)" stroke-width="1" opacity="1" d="M 2.5 16 L 3.5 18 Q 0.7 18.7 2.5 16 Z " /><path fill="rgb(2,2,2)" stroke="rgb(2,2,2)" stroke-width="1" opacity="1" d="M 5.5 18 L 4.5 20 L 5.5 18 Z " /><path fill="rgb(2,2,2)" stroke="rgb(2,2,2)" stroke-width="1" opacity="1" d="M 5.5 21 L 6 22.5 L 5 26 L 3 25.5 L 5.5 21 Z " /><path fill="rgb(2,2,2)" stroke="rgb(2,2,2)" stroke-width="1" opacity="1" d="M 0.5 26 L 3 27.5 L 2.5 29 L 2 27 L 0.5 26 Z " /><path fill="rgb(2,2,2)" stroke="rgb(2,2,2)" stroke-width="1" opacity="1" d="M 39.5 26 L 40.5 28 L 39 27.5 L 38.5 29 L 37.5 27 L 39.5 26 Z " /><path fill="rgb(2,2,2)" stroke="rgb(2,2,2)" stroke-width="1" opacity="1" d="M 42.5 28 L 43 30 L 39.5 31 L 39.5 30 L 42.5 28 Z " /><path fill="rgb(2,2,2)" stroke="rgb(2,2,2)" stroke-width="1" opacity="1" d="M 0.5 29 L 3 32.5 L 2 32.5 L 0.5 29 Z " /><path fill="rgb(2,2,2)" stroke="rgb(2,2,2)" stroke-width="1" opacity="1" d="M 25.5 31 L 28 36.5 L 26 37 L 25.5 31 Z " /><path fill="rgb(2,2,2)" stroke="rgb(2,2,2)" stroke-width="1" opacity="1" d="M 28.5 32 L 30 35.5 L 29 35.5 L 28.5 32 Z " /><path fill="rgb(2,2,2)" stroke="rgb(2,2,2)" stroke-width="1" opacity="1" d="M 20.5 33 L 21 34.5 L 20.5 36 L 22 36.5 L 18.5 38 L 18 35.5 L 18.5 34 L 20 34.5 L 20.5 33 Z " /><path fill="rgb(2,2,2)" stroke="rgb(2,2,2)" stroke-width="1" opacity="1" d="M 22.5 33 L 25 34.5 L 24.5 36 L 24 34 L 22.5 33 Z " /><path fill="rgb(2,2,2)" stroke="rgb(2,2,2)" stroke-width="1" opacity="1" d="M 44.5 34 L 45 35.5 L 43 36.5 L 44.5 34 Z " /><path fill="rgb(2,2,2)" stroke="rgb(2,2,2)" stroke-width="1" opacity="1" d="M 14.5 37 L 15 39.5 L 12.5 41 L 11.5 39 L 14 40 L 14.5 37 Z " /><path fill="rgb(2,2,2)" stroke="rgb(2,2,2)" stroke-width="1" opacity="1" d="M 31.5 37 L 32.5 39 L 35 38 Q 34 41 37 40 L 37 43.5 L 36 46 L 38.5 47 L 40 46.5 L 39 50 L 41 50.5 L 39.5 53 L 38 47 L 35 47.5 L 37 48.5 L 36 50.5 L 36.5 52 L 32.5 53 L 32.5 52 Q 35.1 52.8 34 49.5 L 33 49.5 L 32.5 51 L 32 49.5 Q 35.6 47.7 36 42.5 L 33.5 39 L 31.5 39 L 27.5 40 L 28.5 38 L 31.5 37 Z " /><path fill="rgb(2,2,2)" stroke="rgb(2,2,2)" stroke-width="1" opacity="1" d="M 20.5 38 L 22 41 L 19 40.5 L 20.5 38 Z " /><path fill="rgb(2,2,2)" stroke="rgb(2,2,2)" stroke-width="1" opacity="1" d="M 40.5 40 L 43 41.5 L 41.5 41 L 40.5 40 Z " /><path fill="rgb(2,2,2)" stroke="rgb(2,2,2)" stroke-width="1" opacity="1" d="M 13.5 42 L 16 43.5 L 14.5 43 L 12.5 44 L 13.5 42 Z " /><path fill="rgb(2,2,2)" stroke="rgb(2,2,2)" stroke-width="1" opacity="1" d="M 9.5 43 L 10 44.5 Q 7.2 46.5 8 51 L 4 50.5 L 6 49.5 L 5.5 48 L 8 46.5 L 9.5 43 Z " /><path fill="rgb(2,2,2)" stroke="rgb(2,2,2)" stroke-width="1" opacity="1" d="M 32.5 43 L 33 45.5 L 32 45.5 L 32.5 43 Z " /><path fill="rgb(2,2,2)" stroke="rgb(2,2,2)" stroke-width="1" opacity="1" d="M 22 45 Q 25 44 24 47 L 21.5 48 L 22 46.5 L 22 45 Z " /><path fill="rgb(2,2,2)" stroke="rgb(2,2,2)" stroke-width="1" opacity="1" d="M 2 46 L 4 46.5 L 2 47.5 L 2 46 Z " /><path fill="rgb(2,2,2)" stroke="rgb(2,2,2)" stroke-width="1" opacity="1" d="M 14.5 47 L 14 48.5 L 11.5 52 L 12 50.5 Q 10.9 47.2 13.5 48 L 14.5 47 Z " /><path fill="rgb(2,2,2)" stroke="rgb(2,2,2)" stroke-width="1" opacity="1" d="M 42.5 47 Q 46.9 45.5 46 48.5 L 44 49.5 L 44.5 48 Q 41.5 48.5 42.5 47 Z " /><path fill="rgb(2,2,2)" stroke="rgb(2,2,2)" stroke-width="1" opacity="1" d="M 1.5 49 L 2 51.5 L 0 52.5 L 1.5 49 Z " /><path fill="rgb(2,2,2)" stroke="rgb(2,2,2)" stroke-width="1" opacity="1" d="M 23.5 49 L 21.5 52 L 20.5 50 Q 22 52.5 23.5 49 Z " /><path fill="rgb(2,2,2)" stroke="rgb(2,2,2)" stroke-width="1" opacity="1" d="M 46.5 50 L 48.5 51 L 50 50.5 Q 48.8 53.3 47.5 51 L 45.5 52 L 46.5 50 Z " /><path fill="rgb(2,2,2)" stroke="rgb(2,2,2)" stroke-width="1" opacity="1" d="M 14 51 L 17 51.5 L 15 52 L 14.5 54 L 14 51 Z " /><path fill="rgb(2,2,2)" stroke="rgb(2,2,2)" stroke-width="1" opacity="1" d="M 1.5 54 L 0.5 56 L 1.5 54 Z " /><path fill="rgb(2,2,2)" stroke="rgb(2,2,2)" stroke-width="1" opacity="1" d="M 23.5 54 L 25 56.5 L 23 55.5 L 23.5 54 Z " /><path fill="rgb(2,2,2)" stroke="rgb(2,2,2)" stroke-width="1" opacity="1" d="M 48.5 54 L 52 55.5 L 50.5 56 L 48.5 54 Z " /><path fill="rgb(2,2,2)" stroke="rgb(2,2,2)" stroke-width="1" opacity="1" d="M 37 56 L 39 56.5 L 37 57.5 L 37 56 Z " /><path fill="rgb(2,2,2)" stroke="rgb(2,2,2)" stroke-width="1" opacity="1" d="M 53.5 56 L 55 58.5 L 52.5 60 L 52.5 59 L 54 58.5 L 53.5 56 Z " /><path fill="rgb(2,2,2)" stroke="rgb(2,2,2)" stroke-width="1" opacity="1" d="M 30 57 L 32 57.5 L 30 58.5 L 30 57 Z " /><path fill="rgb(2,2,2)" stroke="rgb(2,2,2)" stroke-width="1" opacity="1" d="M 48.5 57 Q 46.9 58.8 50 60.5 L 51 62.5 L 49 63 Q 49.8 59.6 47 58.5 L 48.5 57 Z " /><path fill="rgb(2,2,2)" stroke="rgb(2,2,2)" stroke-width="1" opacity="1" d="M 9.5 61 L 14 63.5 L 10.5 64 L 8 62.5 L 9.5 61 Z " /><path fill="rgb(2,2,2)" stroke="rgb(2,2,2)" stroke-width="1" opacity="1" d="M 34.5 61 L 37 62.5 L 35.5 62 L 34.5 61 Z " /><path fill="rgb(2,2,2)" stroke="rgb(2,2,2)" stroke-width="1" opacity="1" d="M 54.5 61 L 55 63.5 L 53 62.5 L 54.5 61 Z " /><path fill="rgb(2,2,2)" stroke="rgb(2,2,2)" stroke-width="1" opacity="1" d="M 21.5 62 L 22.5 64 L 20 63.5 L 21.5 62 Z " /><path fill="rgb(191,191,191)" stroke="rgb(191,191,191)" stroke-width="1" opacity="1" d="M 11.5 6 L 12 10 L 14 10.5 L 12 11 Q 12.8 14.4 10 15.5 L 11 17.5 L 10.5 20 Q 8.3 19.3 9 15.5 L 12 10.5 Q 8.5 9 11 7.5 L 11.5 6 Z " /><path fill="rgb(191,191,191)" stroke="rgb(191,191,191)" stroke-width="1" opacity="1" d="M 6.5 15 L 7 17.5 L 6 17.5 L 6.5 15 Z " /><path fill="rgb(191,191,191)" stroke="rgb(191,191,191)" stroke-width="1" opacity="1" d="M 18.5 17 L 21.5 19 L 22.5 17 L 23 18.5 L 21.5 21 L 19.5 18 L 18.5 17 Z " /><path fill="rgb(191,191,191)" stroke="rgb(191,191,191)" stroke-width="1" opacity="1" d="M 29.5 17 L 34 19.5 L 32.5 23 Q 27.9 22.4 26.5 25 L 24 24.5 L 25 22 L 27 21.5 L 24.5 21 L 23 21.5 L 26.5 19 L 29 20 L 29.5 17 Z M 33 19 L 32 22 L 33 22 L 33 19 Z " /><path fill="rgb(191,191,191)" stroke="rgb(191,191,191)" stroke-width="1" opacity="1" d="M 14.5 20 L 19 22 Q 20.1 24.7 17.5 24 L 13 26.5 Q 13.8 29.1 10.5 28 L 12.5 31 L 14.5 31 L 18 30.5 Q 15.8 29.3 18.5 28 L 19 30.5 L 15.5 34 Q 14.3 31.7 13 34.5 L 11.5 37 L 11.5 35 L 8.5 37 L 8.5 39 L 6 40.5 L 6.5 42 L 8 41.5 Q 6.5 44.5 5 41.5 L 7 34.5 L 5 34.5 L 6 32 L 4 31.5 L 6 31 L 8 25.5 L 6 25.5 L 7.5 23 L 9 27 Q 12.7 28.2 11 23 L 15 23 L 15 21.5 L 14.5 20 Z M 12 24 L 12 26 L 14 25 L 12 24 Z M 9 28 L 7 31 L 9 30 L 9 28 Z M 10 33 L 8 36 L 10 35 L 10 33 Z " /><path fill="rgb(191,191,191)" stroke="rgb(191,191,191)" stroke-width="1" opacity="1" d="M 36.5 23 L 39 24.5 L 37.5 25 L 35 24.5 L 36.5 23 Z " /><path fill="rgb(191,191,191)" stroke="rgb(191,191,191)" stroke-width="1" opacity="1" d="M 32.5 25 L 33.5 27 Q 30.7 27.7 32.5 25 Z " /><path fill="rgb(191,191,191)" stroke="rgb(191,191,191)" stroke-width="1" opacity="1" d="M 23 26 L 27 27.5 L 24.5 28 Q 21.9 28.7 23 26 Z " /><path fill="rgb(191,191,191)" stroke="rgb(191,191,191)" stroke-width="1" opacity="1" d="M 55.5 37 L 54.5 39 L 55.5 37 Z " /><path fill="rgb(191,191,191)" stroke="rgb(191,191,191)" stroke-width="1" opacity="1" d="M 43.5 53 L 46 54.5 L 44 55 L 43.5 57 L 43 55.5 L 43.5 53 Z " /><path fill="rgb(169,169,169)" stroke="rgb(169,169,169)" stroke-width="1" opacity="1" d="M 34.5 1 L 35 2.5 L 33 3.5 L 34.5 1 Z " /><path fill="rgb(169,169,169)" stroke="rgb(169,169,169)" stroke-width="1" opacity="1" d="M 8.5 2 Q 11.5 1.1 10 5.5 L 9 5.5 L 8.5 2 Z " /><path fill="rgb(169,169,169)" stroke="rgb(169,169,169)" stroke-width="1" opacity="1" d="M 8 7 L 11 7.5 L 8.5 9 L 8 7 Z " /><path fill="rgb(169,169,169)" stroke="rgb(169,169,169)" stroke-width="1" opacity="1" d="M 8.5 10 L 8 11.5 L 7.5 17 L 7 11.5 L 8.5 10 Z " /><path fill="rgb(169,169,169)" stroke="rgb(169,169,169)" stroke-width="1" opacity="1" d="M 11.5 14 L 12 19 L 10 19 Q 11.1 21.7 8.5 21 L 11 17.5 L 11.5 14 Z " /><path fill="rgb(169,169,169)" stroke="rgb(169,169,169)" stroke-width="1" opacity="1" d="M 18 18 L 21 19.5 L 21.5 22 L 22.5 20 L 23.5 22 L 26.5 21 L 26.5 22 Q 24.3 21.3 25 23.5 L 21.5 28 L 19.5 29 Q 18.3 26.8 17 29.5 L 17.5 31 L 13.5 32 L 10.5 28 Q 13.8 29.1 13 26.5 L 12 24 L 17.5 25 L 20 24 L 19.5 20 L 18.5 22 L 18 18 Z " /><path fill="rgb(169,169,169)" stroke="rgb(169,169,169)" stroke-width="1" opacity="1" d="M 34.5 21 L 36 23.5 L 33.5 25 L 31.5 25 L 25.5 28 L 26 26.5 Q 25.3 24.3 27.5 25 L 34.5 21 Z " /><path fill="rgb(169,169,169)" stroke="rgb(169,169,169)" stroke-width="1" opacity="1" d="M 10.5 24 L 10.5 27 Q 8.3 27.8 9 25.5 L 10.5 24 Z " /><path fill="rgb(169,169,169)" stroke="rgb(169,169,169)" stroke-width="1" opacity="1" d="M 8.5 28 L 9 29.5 L 7 30.5 L 8.5 28 Z " /><path fill="rgb(169,169,169)" stroke="rgb(169,169,169)" stroke-width="1" opacity="1" d="M 50.5 29 L 51 30.5 L 49 31.5 L 50.5 29 Z " /><path fill="rgb(169,169,169)" stroke="rgb(169,169,169)" stroke-width="1" opacity="1" d="M 7.5 33 L 6.5 35 L 7.5 33 Z " /><path fill="rgb(169,169,169)" stroke="rgb(169,169,169)" stroke-width="1" opacity="1" d="M 16.5 33 L 15.5 35 L 16.5 33 Z " /><path fill="rgb(169,169,169)" stroke="rgb(169,169,169)" stroke-width="1" opacity="1" d="M 54.5 33 L 55.5 35 L 54.5 33 Z " /><path fill="rgb(169,169,169)" stroke="rgb(169,169,169)" stroke-width="1" opacity="1" d="M 10.5 36 Q 13.5 37.5 10.5 39 Q 7.5 37.5 10.5 36 Z " /><path fill="rgb(169,169,169)" stroke="rgb(169,169,169)" stroke-width="1" opacity="1" d="M 44.5 39 L 45 42.5 L 44 42.5 L 44.5 39 Z " /><path fill="rgb(169,169,169)" stroke="rgb(169,169,169)" stroke-width="1" opacity="1" d="M 52 40 L 54 40.5 L 52.5 44 L 52 40 Z " /><path fill="rgb(169,169,169)" stroke="rgb(169,169,169)" stroke-width="1" opacity="1" d="M 3.5 42 L 4 44.5 L 3 44.5 L 3.5 42 Z " /><path fill="rgb(169,169,169)" stroke="rgb(169,169,169)" stroke-width="1" opacity="1" d="M 58.5 43 L 59 45.5 L 58 45.5 L 58.5 43 Z " /><path fill="rgb(169,169,169)" stroke="rgb(169,169,169)" stroke-width="1" opacity="1" d="M 58.5 50 L 59 52 L 57 51.5 L 58.5 50 Z " /><path fill="rgb(169,169,169)" stroke="rgb(169,169,169)" stroke-width="1" opacity="1" d="M 52.5 52 L 53.5 54 L 52.5 52 Z " /><path fill="rgb(169,169,169)" stroke="rgb(169,169,169)" stroke-width="1" opacity="1" d="M 42.5 53 L 43.5 55 Q 40.7 55.7 42.5 53 Z " /><path fill="rgb(169,169,169)" stroke="rgb(169,169,169)" stroke-width="1" opacity="1" d="M 40.5 60 L 43 60.5 L 41.5 64 L 41 62 L 39 61.5 L 40.5 60 Z " /><path fill="rgb(169,169,169)" stroke="rgb(169,169,169)" stroke-width="1" opacity="1" d="M 62.5 61 L 63 63.5 L 62 63.5 L 62.5 61 Z " /><path fill="rgb(5,5,5)" stroke="rgb(5,5,5)" stroke-width="1" opacity="1" d="M 2.5 2 L 3.5 4 L 2.5 2 Z " /><path fill="rgb(5,5,5)" stroke="rgb(5,5,5)" stroke-width="1" opacity="1" d="M 2.5 11 L 1.5 13 L 2.5 11 Z " /><path fill="rgb(5,5,5)" stroke="rgb(5,5,5)" stroke-width="1" opacity="1" d="M 27.5 35 Q 30.1 34.2 29 37.5 L 28 37.5 L 27.5 35 Z " /><path fill="rgb(5,5,5)" stroke="rgb(5,5,5)" stroke-width="1" opacity="1" d="M 34.5 37 L 35.5 39 L 34.5 37 Z " /><path fill="rgb(5,5,5)" stroke="rgb(5,5,5)" stroke-width="1" opacity="1" d="M 21.5 41 L 24 42.5 L 21 43 L 21.5 41 Z " /><path fill="rgb(5,5,5)" stroke="rgb(5,5,5)" stroke-width="1" opacity="1" d="M 22.5 44 L 22 45.5 L 21.5 47 L 21 45.5 L 22.5 44 Z " /><path fill="rgb(5,5,5)" stroke="rgb(5,5,5)" stroke-width="1" opacity="1" d="M 11.5 52 Q 13.8 51.3 13 53.5 L 11.5 52 Z " /><path fill="rgb(5,5,5)" stroke="rgb(5,5,5)" stroke-width="1" opacity="1" d="M 34.5 52 L 35.5 54 L 34.5 52 Z " /><path fill="rgb(5,5,5)" stroke="rgb(5,5,5)" stroke-width="1" opacity="1" d="M 15.5 56 Q 18.5 57.5 15.5 59 L 15.5 56 Z " /><path fill="rgb(5,5,5)" stroke="rgb(5,5,5)" stroke-width="1" opacity="1" d="M 25.5 56 L 24.5 58 L 25.5 56 Z " /><path fill="rgb(5,5,5)" stroke="rgb(5,5,5)" stroke-width="1" opacity="1" d="M 32.5 56 L 34 58.5 L 32 57.5 L 32.5 56 Z " /><path fill="rgb(5,5,5)" stroke="rgb(5,5,5)" stroke-width="1" opacity="1" d="M 52.5 57 L 51.5 59 L 52.5 57 Z " /><path fill="rgb(5,5,5)" stroke="rgb(5,5,5)" stroke-width="1" opacity="1" d="M 49.5 58 L 51 60.5 L 49 59.5 L 49.5 58 Z " /><path fill="rgb(245,245,245)" stroke="rgb(245,245,245)" stroke-width="1" opacity="1" d="M 38.5 0 L 38 1.5 L 37.5 3 L 37 1.5 L 38.5 0 Z " /><path fill="rgb(245,245,245)" stroke="rgb(245,245,245)" stroke-width="1" opacity="1" d="M 32.5 1 L 33.5 3 L 32.5 1 Z " /><path fill="rgb(245,245,245)" stroke="rgb(245,245,245)" stroke-width="1" opacity="1" d="M 30.5 3 L 29.5 5 L 30.5 3 Z " /><path fill="rgb(245,245,245)" stroke="rgb(245,245,245)" stroke-width="1" opacity="1" d="M 41 3 L 43 3.5 L 41 4.5 L 41 3 Z " /><path fill="rgb(245,245,245)" stroke="rgb(245,245,245)" stroke-width="1" opacity="1" d="M 56.5 4 L 57 5.5 L 56.5 8 Q 53.7 6.8 56 5.5 L 56.5 4 Z " /><path fill="rgb(245,245,245)" stroke="rgb(245,245,245)" stroke-width="1" opacity="1" d="M 63.5 4 L 62 6.5 L 64 8.5 Q 64.8 10.8 62.5 10 L 63 8.5 L 60.5 5 L 63.5 4 Z " /><path fill="rgb(245,245,245)" stroke="rgb(245,245,245)" stroke-width="1" opacity="1" d="M 41.5 6 Q 44.5 7.5 41.5 9 L 40 8.5 L 41.5 6 Z " /><path fill="rgb(245,245,245)" stroke="rgb(245,245,245)" stroke-width="1" opacity="1" d="M 46.5 9 L 47 11 L 45 10.5 L 46.5 9 Z " /><path fill="rgb(245,245,245)" stroke="rgb(245,245,245)" stroke-width="1" opacity="1" d="M 40.5 10 L 41 11.5 L 40 13.5 L 42 14.5 Q 40.5 10.1 43.5 11 L 43.5 13 L 46.5 14 L 48 13.5 L 47.5 17 L 47 15 L 43.5 14 L 39.5 17 L 39.5 16 L 41 15.5 L 38 13.5 L 37.5 16 L 37 13.5 L 40.5 10 Z " /><path fill="rgb(245,245,245)" stroke="rgb(245,245,245)" stroke-width="1" opacity="1" d="M 42.5 17 L 44 19.5 L 41.5 24 L 40.5 22 L 42 22.5 L 42.5 17 Z " /><path fill="rgb(245,245,245)" stroke="rgb(245,245,245)" stroke-width="1" opacity="1" d="M 40.5 18 L 41 19.5 L 37.5 22 L 38.5 20 Q 41 20.7 40.5 18 Z " /><path fill="rgb(245,245,245)" stroke="rgb(245,245,245)" stroke-width="1" opacity="1" d="M 45 19 L 47 19.5 L 46.5 21 L 48 21.5 L 46.5 22 L 45 19 Z " /><path fill="rgb(245,245,245)" stroke="rgb(245,245,245)" stroke-width="1" opacity="1" d="M 50.5 21 L 51.5 23 L 50.5 21 Z " /><path fill="rgb(245,245,245)" stroke="rgb(245,245,245)" stroke-width="1" opacity="1" d="M 44.5 22 L 45 24.5 L 44 24.5 L 44.5 22 Z " /><path fill="rgb(245,245,245)" stroke="rgb(245,245,245)" stroke-width="1" opacity="1" d="M 54 23 L 56 23.5 L 55.5 26 L 54 23 Z " /><path fill="rgb(245,245,245)" stroke="rgb(245,245,245)" stroke-width="1" opacity="1" d="M 55.5 30 L 58 35 L 60 35.5 L 57 36 L 54 31.5 L 55.5 30 Z " /><path fill="rgb(245,245,245)" stroke="rgb(245,245,245)" stroke-width="1" opacity="1" d="M 45.5 34 L 51 35.5 L 47.5 37 L 47 35 L 45.5 34 Z " /><path fill="rgb(245,245,245)" stroke="rgb(245,245,245)" stroke-width="1" opacity="1" d="M 47.5 38 L 48 39.5 L 45.5 45 L 46 41.5 L 47.5 38 Z " /><path fill="rgb(245,245,245)" stroke="rgb(245,245,245)" stroke-width="1" opacity="1" d="M 49 38 L 52 38.5 L 49.5 40 L 49 38 Z " /><path fill="rgb(245,245,245)" stroke="rgb(245,245,245)" stroke-width="1" opacity="1" d="M 51.5 40 L 52 41.5 L 49 42.5 L 48.5 44 L 48 42.5 L 51 41.5 L 51.5 40 Z " /><path fill="rgb(245,245,245)" stroke="rgb(245,245,245)" stroke-width="1" opacity="1" d="M 54.5 41 L 57 42.5 L 55.5 43 L 53 42.5 L 54.5 41 Z " /><path fill="rgb(245,245,245)" stroke="rgb(245,245,245)" stroke-width="1" opacity="1" d="M 50.5 44 Q 52.8 43.3 52 45.5 L 50.5 44 Z " /><path fill="rgb(245,245,245)" stroke="rgb(245,245,245)" stroke-width="1" opacity="1" d="M 57.5 44 L 57 45.5 L 56.5 47 L 56 45.5 L 57.5 44 Z " /><path fill="rgb(245,245,245)" stroke="rgb(245,245,245)" stroke-width="1" opacity="1" d="M 60.5 49 L 64 51.5 L 62.5 51 L 60.5 49 Z " /><path fill="rgb(245,245,245)" stroke="rgb(245,245,245)" stroke-width="1" opacity="1" d="M 53.5 51 L 56 52.5 L 54.5 52 L 53.5 51 Z " /><path fill="rgb(245,245,245)" stroke="rgb(245,245,245)" stroke-width="1" opacity="1" d="M 60.5 56 Q 62.8 55.3 62 57.5 L 60.5 56 Z " /><path fill="rgb(245,245,245)" stroke="rgb(245,245,245)" stroke-width="1" opacity="1" d="M 20.5 57 L 21 59 L 19 58.5 L 20.5 57 Z " /><path fill="rgb(245,245,245)" stroke="rgb(245,245,245)" stroke-width="1" opacity="1" d="M 57.5 58 L 60 59.5 L 58.5 59 L 57.5 58 Z " /><path fill="rgb(4,4,4)" stroke="rgb(4,4,4)" stroke-width="1" opacity="1" d="M 3.5 33 L 4 35 L 2 34.5 L 3.5 33 Z " /><path fill="rgb(4,4,4)" stroke="rgb(4,4,4)" stroke-width="1" opacity="1" d="M 21.5 35 L 22.5 37 L 21.5 35 Z " /><path fill="rgb(4,4,4)" stroke="rgb(4,4,4)" stroke-width="1" opacity="1" d="M 30.5 35 L 30.5 38 Q 28.3 38.8 29 36.5 L 30.5 35 Z " /><path fill="rgb(4,4,4)" stroke="rgb(4,4,4)" stroke-width="1" opacity="1" d="M 24.5 36 L 28 37 L 27.5 39 L 25.5 38 L 24 38.5 L 24.5 36 Z " /><path fill="rgb(4,4,4)" stroke="rgb(4,4,4)" stroke-width="1" opacity="1" d="M 42.5 36 L 43.5 38 L 42.5 36 Z " /><path fill="rgb(4,4,4)" stroke="rgb(4,4,4)" stroke-width="1" opacity="1" d="M 21.5 38 L 23.5 40 L 32 40 Q 30.5 45.4 33.5 47 Q 34.8 44.8 36 47.5 L 32 47.5 L 33 51.5 L 31.5 57 Q 30 54.5 24.5 56 L 23 56.5 L 24 55.5 L 24 41.5 L 22 41.5 L 21.5 38 Z " /><path fill="rgb(4,4,4)" stroke="rgb(4,4,4)" stroke-width="1" opacity="1" d="M 18.5 39 L 20 41.5 L 18.5 42 Q 15.5 40.5 18.5 39 Z " /><path fill="rgb(4,4,4)" stroke="rgb(4,4,4)" stroke-width="1" opacity="1" d="M 20.5 43 L 23 43.5 Q 20.9 46.8 20.5 43 Z " /><path fill="rgb(4,4,4)" stroke="rgb(4,4,4)" stroke-width="1" opacity="1" d="M 37.5 45 L 40 45.5 L 37 47.5 L 37.5 45 Z " /><path fill="rgb(4,4,4)" stroke="rgb(4,4,4)" stroke-width="1" opacity="1" d="M 44.5 48 L 45.5 50 L 44.5 48 Z " /><path fill="rgb(4,4,4)" stroke="rgb(4,4,4)" stroke-width="1" opacity="1" d="M 20.5 49 L 19.5 51 L 20.5 49 Z " /><path fill="rgb(4,4,4)" stroke="rgb(4,4,4)" stroke-width="1" opacity="1" d="M 9.5 50 L 10.5 52 L 9.5 50 Z " /><path fill="rgb(4,4,4)" stroke="rgb(4,4,4)" stroke-width="1" opacity="1" d="M 21.5 52 L 22.5 54 L 21.5 52 Z " /><path fill="rgb(4,4,4)" stroke="rgb(4,4,4)" stroke-width="1" opacity="1" d="M 24.5 58 L 22.5 61 L 24.5 58 Z " /><path fill="rgb(4,4,4)" stroke="rgb(4,4,4)" stroke-width="1" opacity="1" d="M 11 59 L 13 59.5 L 11.5 62 L 11 59 Z " /><path fill="rgb(4,4,4)" stroke="rgb(4,4,4)" stroke-width="1" opacity="1" d="M 6.5 60 L 7.5 62 L 6.5 60 Z " /><path fill="rgb(4,4,4)" stroke="rgb(4,4,4)" stroke-width="1" opacity="1" d="M 13.5 62 L 14.5 64 L 13.5 62 Z " /><path fill="rgb(34,34,34)" stroke="rgb(34,34,34)" stroke-width="1" opacity="1" d="M 59.5 6 L 58.5 8 L 59.5 6 Z " /><path fill="rgb(34,34,34)" stroke="rgb(34,34,34)" stroke-width="1" opacity="1" d="M 5.5 11 L 6 13.5 L 5 13.5 L 5.5 11 Z " /><path fill="rgb(34,34,34)" stroke="rgb(34,34,34)" stroke-width="1" opacity="1" d="M 48.5 26 L 50 29.5 Q 50.8 31.8 48.5 31 L 48.5 26 Z " /><path fill="rgb(34,34,34)" stroke="rgb(34,34,34)" stroke-width="1" opacity="1" d="M 41.5 30 L 40.5 32 L 41.5 30 Z " /><path fill="rgb(34,34,34)" stroke="rgb(34,34,34)" stroke-width="1" opacity="1" d="M 43.5 32 L 44.5 34 L 43.5 32 Z " /><path fill="rgb(34,34,34)" stroke="rgb(34,34,34)" stroke-width="1" opacity="1" d="M 39.5 36 L 40 39.5 L 39 39.5 L 39.5 36 Z " /><path fill="rgb(34,34,34)" stroke="rgb(34,34,34)" stroke-width="1" opacity="1" d="M 8.5 41 L 7.5 43 L 8.5 41 Z " /><path fill="rgb(34,34,34)" stroke="rgb(34,34,34)" stroke-width="1" opacity="1" d="M 16.5 43 Q 19.5 44.5 16.5 46 L 16.5 43 Z " /><path fill="rgb(34,34,34)" stroke="rgb(34,34,34)" stroke-width="1" opacity="1" d="M 5.5 45 L 6.5 47 L 5.5 45 Z " /><path fill="rgb(34,34,34)" stroke="rgb(34,34,34)" stroke-width="1" opacity="1" d="M 10.5 46 Q 13.5 47.5 10.5 49 L 9 48.5 L 10.5 46 Z " /><path fill="rgb(34,34,34)" stroke="rgb(34,34,34)" stroke-width="1" opacity="1" d="M 2.5 51 Q 5.9 54.9 5 62 Q 2.3 60.9 3 63.5 L 2 63.5 L 2.5 51 Z " /><path fill="rgb(34,34,34)" stroke="rgb(34,34,34)" stroke-width="1" opacity="1" d="M 50.5 51 L 52.5 54 L 50 53.5 L 50.5 51 Z " /><path fill="rgb(34,34,34)" stroke="rgb(34,34,34)" stroke-width="1" opacity="1" d="M 10.5 54 L 11 57.5 L 10 60 Q 6.2 61.5 7 58.5 L 8 55 L 10.5 54 Z " /><path fill="rgb(34,34,34)" stroke="rgb(34,34,34)" stroke-width="1" opacity="1" d="M 49.5 55 L 48.5 57 L 49.5 55 Z " /><path fill="rgb(34,34,34)" stroke="rgb(34,34,34)" stroke-width="1" opacity="1" d="M 52.5 55 L 51.5 57 L 52.5 55 Z " /><path fill="rgb(34,34,34)" stroke="rgb(34,34,34)" stroke-width="1" opacity="1" d="M 51 61 Q 53.7 59.9 53 62.5 L 53.5 64 Q 49.3 65.1 51 61 Z " /><path fill="rgb(34,34,34)" stroke="rgb(34,34,34)" stroke-width="1" opacity="1" d="M 60.5 61 L 61.5 63 L 60.5 61 Z " /><path fill="rgb(34,34,34)" stroke="rgb(34,34,34)" stroke-width="1" opacity="1" d="M 55 62 L 57 62.5 L 55 63.5 L 55 62 Z " /><path fill="rgb(11,11,11)" stroke="rgb(11,11,11)" stroke-width="1" opacity="1" d="M 5.5 0 L 6.5 2 L 4.5 2 L 3 1.5 L 5.5 0 Z " /><path fill="rgb(11,11,11)" stroke="rgb(11,11,11)" stroke-width="1" opacity="1" d="M 25.5 0 L 26 1.5 L 25.5 4 L 21 1.5 L 22.5 2 Q 26 3 25.5 0 Z " /><path fill="rgb(11,11,11)" stroke="rgb(11,11,11)" stroke-width="1" opacity="1" d="M 28 0 L 30.5 1 L 32 0.5 L 30.5 2 L 28 1.5 L 28 0 Z " /><path fill="rgb(11,11,11)" stroke="rgb(11,11,11)" stroke-width="1" opacity="1" d="M 58.5 0 Q 61.3 1.3 59 2.5 L 58.5 4 L 57 1.5 L 58.5 0 Z " /><path fill="rgb(11,11,11)" stroke="rgb(11,11,11)" stroke-width="1" opacity="1" d="M 0.5 1 L 1.5 3 L 0.5 1 Z " /><path fill="rgb(11,11,11)" stroke="rgb(11,11,11)" stroke-width="1" opacity="1" d="M 2.5 8 L 4 10.5 L 2 11 L 2.5 8 Z " /><path fill="rgb(11,11,11)" stroke="rgb(11,11,11)" stroke-width="1" opacity="1" d="M 4.5 13 L 5.5 15 Q 2.7 15.7 4.5 13 Z " /><path fill="rgb(11,11,11)" stroke="rgb(11,11,11)" stroke-width="1" opacity="1" d="M 2.5 23 L 3 26.5 L 2 29 L 0 28.5 Q 2.8 27.3 2.5 23 Z " /><path fill="rgb(11,11,11)" stroke="rgb(11,11,11)" stroke-width="1" opacity="1" d="M 36.5 26 Q 34.9 27.8 38 29.5 L 36 32.5 L 38.5 36 L 35.5 34 L 36.5 37 L 35.5 36 L 32 38.5 L 35 35.5 L 34.5 33 Q 32.3 32.3 33 34.5 L 32 34.5 L 33.5 31 L 35.5 31 Q 37.8 31.8 37 29.5 L 35 28.5 Q 35.8 30.8 33.5 30 L 33.5 27 Q 35 29.5 36.5 26 Z " /><path fill="rgb(11,11,11)" stroke="rgb(11,11,11)" stroke-width="1" opacity="1" d="M 43.5 26 L 42.5 28 L 43.5 26 Z " /><path fill="rgb(11,11,11)" stroke="rgb(11,11,11)" stroke-width="1" opacity="1" d="M 39.5 27 Q 42.5 28.5 39.5 30 L 39.5 27 Z " /><path fill="rgb(11,11,11)" stroke="rgb(11,11,11)" stroke-width="1" opacity="1" d="M 45.5 27 Q 48.8 25.9 48 28.5 L 48.5 30 Q 46.3 30.8 47 28.5 L 45.5 29 L 44 28.5 L 45.5 27 Z " /><path fill="rgb(11,11,11)" stroke="rgb(11,11,11)" stroke-width="1" opacity="1" d="M 30.5 28 L 31.5 30 L 30.5 28 Z " /><path fill="rgb(11,11,11)" stroke="rgb(11,11,11)" stroke-width="1" opacity="1" d="M 25.5 29 L 27.5 30 L 29 29.5 L 27.5 32 Q 25.8 28.9 24 30.5 L 25.5 29 Z " /><path fill="rgb(11,11,11)" stroke="rgb(11,11,11)" stroke-width="1" opacity="1" d="M 42.5 30 L 44.5 30 L 48 31.5 L 45.5 33 L 45.5 31 L 43 32.5 L 41.5 35 L 40 32.5 L 43 31.5 L 42.5 30 Z " /><path fill="rgb(11,11,11)" stroke="rgb(11,11,11)" stroke-width="1" opacity="1" d="M 23.5 32 Q 26.8 30.9 26 33.5 L 24.5 33 L 23.5 32 Z " /><path fill="rgb(11,11,11)" stroke="rgb(11,11,11)" stroke-width="1" opacity="1" d="M 0.5 35 L 2.5 36 L 4 35.5 L 1.5 39 L 0.5 35 Z " /><path fill="rgb(11,11,11)" stroke="rgb(11,11,11)" stroke-width="1" opacity="1" d="M 41.5 37 Q 44.1 36.2 43 39.5 L 43.5 41 L 41.5 37 Z " /><path fill="rgb(11,11,11)" stroke="rgb(11,11,11)" stroke-width="1" opacity="1" d="M 13.5 38 L 11.5 41 L 13.5 38 Z " /><path fill="rgb(11,11,11)" stroke="rgb(11,11,11)" stroke-width="1" opacity="1" d="M 36.5 38 L 40 40.5 L 38.5 45 L 37 41.5 L 38 39 L 36.5 38 Z " /><path fill="rgb(11,11,11)" stroke="rgb(11,11,11)" stroke-width="1" opacity="1" d="M 15.5 41 L 21 45.5 Q 21.8 47.8 19.5 47 L 16 49.5 Q 18 53.2 20 51.5 L 17 52.5 L 15.5 56 L 15 53.5 Q 19 51.5 15 49.5 L 14 46.5 L 15.5 44 L 16.5 46 L 18 44.5 L 15.5 41 Z " /><path fill="rgb(11,11,11)" stroke="rgb(11,11,11)" stroke-width="1" opacity="1" d="M 41.5 42 L 44 43.5 L 43 44.5 L 44.5 47 L 41 44.5 L 43 43.5 L 41.5 42 Z " /><path fill="rgb(11,11,11)" stroke="rgb(11,11,11)" stroke-width="1" opacity="1" d="M 59.5 42 L 60 44.5 L 59 44.5 L 59.5 42 Z " /><path fill="rgb(11,11,11)" stroke="rgb(11,11,11)" stroke-width="1" opacity="1" d="M 13.5 43 L 14 44.5 L 11 46.5 L 13.5 43 Z " /><path fill="rgb(11,11,11)" stroke="rgb(11,11,11)" stroke-width="1" opacity="1" d="M 1.5 44 L 0.5 46 L 1.5 44 Z " /><path fill="rgb(11,11,11)" stroke="rgb(11,11,11)" stroke-width="1" opacity="1" d="M 9.5 46 L 10 47.5 L 9.5 49 L 11.5 48 L 10.5 50 L 8 48.5 L 9.5 46 Z " /><path fill="rgb(11,11,11)" stroke="rgb(11,11,11)" stroke-width="1" opacity="1" d="M 1.5 47 L 5 48.5 L 4 50.5 L 5.5 53 L 6 51 L 8 51.5 Q 5.2 53.2 6 58.5 L 9 60.5 L 7.5 61 L 6 60.5 L 5.5 62 L 5 60.5 L 5 58.5 L 2 50.5 L 3 49.5 L 1.5 47 Z " /><path fill="rgb(11,11,11)" stroke="rgb(11,11,11)" stroke-width="1" opacity="1" d="M 41.5 48 L 44 49.5 L 43.5 51 L 43 49 L 41.5 48 Z " /><path fill="rgb(11,11,11)" stroke="rgb(11,11,11)" stroke-width="1" opacity="1" d="M 0.5 49 L 1 51.5 L 0 51.5 L 0.5 49 Z " /><path fill="rgb(11,11,11)" stroke="rgb(11,11,11)" stroke-width="1" opacity="1" d="M 22.5 52 L 23.5 54 L 22.5 52 Z " /><path fill="rgb(11,11,11)" stroke="rgb(11,11,11)" stroke-width="1" opacity="1" d="M 10.5 53 L 12 56.5 L 11 56.5 L 10.5 54 L 8 55 L 7.5 58 L 7 55.5 L 10.5 53 Z " /><path fill="rgb(11,11,11)" stroke="rgb(11,11,11)" stroke-width="1" opacity="1" d="M 22.5 55 L 22 56.5 L 22.5 58 L 24 57.5 L 21.5 61 L 26.5 60 L 27.5 61 L 30 59.5 Q 28.3 63.8 26.5 61 L 23 61.5 L 24.5 64 L 21.5 62 L 20 61.5 L 19.5 63 L 19 61.5 L 22 58.5 L 21 57.5 L 22.5 55 Z " /><path fill="rgb(11,11,11)" stroke="rgb(11,11,11)" stroke-width="1" opacity="1" d="M 0.5 57 L 1 59.5 L 0 59.5 L 0.5 57 Z " /><path fill="rgb(11,11,11)" stroke="rgb(11,11,11)" stroke-width="1" opacity="1" d="M 26.5 57 L 27.5 59 L 25 58.5 L 26.5 57 Z " /><path fill="rgb(11,11,11)" stroke="rgb(11,11,11)" stroke-width="1" opacity="1" d="M 51.5 57 Q 54.3 58.3 52 59.5 L 51.5 61 L 50.5 59 L 52 58.5 L 51.5 57 Z " /><path fill="rgb(11,11,11)" stroke="rgb(11,11,11)" stroke-width="1" opacity="1" d="M 34.5 59 L 36 59.5 L 34 60 L 35 63.5 L 34 63.5 L 32 60.5 L 34.5 59 Z " /><path fill="rgb(11,11,11)" stroke="rgb(11,11,11)" stroke-width="1" opacity="1" d="M 17.5 60 L 18 61.5 L 16.5 64 L 16 62.5 L 17.5 60 Z " /><path fill="rgb(11,11,11)" stroke="rgb(11,11,11)" stroke-width="1" opacity="1" d="M 48.5 60 L 49 62.5 L 48 62.5 L 48.5 60 Z " /><path fill="rgb(11,11,11)" stroke="rgb(11,11,11)" stroke-width="1" opacity="1" d="M 57.5 60 L 56.5 62 L 55 61.5 L 57.5 60 Z " /><path fill="rgb(112,112,112)" stroke="rgb(112,112,112)" stroke-width="1" opacity="1" d="M 32.5 0 L 31.5 2 L 32.5 0 Z " /><path fill="rgb(112,112,112)" stroke="rgb(112,112,112)" stroke-width="1" opacity="1" d="M 6.5 3 L 7 5.5 L 6 5.5 L 6.5 3 Z " /><path fill="rgb(112,112,112)" stroke="rgb(112,112,112)" stroke-width="1" opacity="1" d="M 34.5 3 L 35 5 L 33 4.5 L 34.5 3 Z " /><path fill="rgb(112,112,112)" stroke="rgb(112,112,112)" stroke-width="1" opacity="1" d="M 10.5 5 L 11 7 L 9 6.5 L 10.5 5 Z " /><path fill="rgb(112,112,112)" stroke="rgb(112,112,112)" stroke-width="1" opacity="1" d="M 10.5 11 L 11 13.5 L 10 13.5 L 10.5 11 Z " /><path fill="rgb(112,112,112)" stroke="rgb(112,112,112)" stroke-width="1" opacity="1" d="M 19.5 20 L 20 23.5 L 19 23.5 L 19.5 20 Z " /><path fill="rgb(112,112,112)" stroke="rgb(112,112,112)" stroke-width="1" opacity="1" d="M 40.5 25 L 43 25.5 L 40.5 26 L 40.5 25 Z " /><path fill="rgb(112,112,112)" stroke="rgb(112,112,112)" stroke-width="1" opacity="1" d="M 51.5 30 L 52.5 32 Q 49.7 32.7 51.5 30 Z " /><path fill="rgb(112,112,112)" stroke="rgb(112,112,112)" stroke-width="1" opacity="1" d="M 52 33 L 58 36 L 57.5 39 L 53.5 34 L 52 34.5 L 52 33 Z " /><path fill="rgb(112,112,112)" stroke="rgb(112,112,112)" stroke-width="1" opacity="1" d="M 3.5 45 L 4.5 47 L 3.5 45 Z " /><path fill="rgb(112,112,112)" stroke="rgb(112,112,112)" stroke-width="1" opacity="1" d="M 50.5 49 L 52 51.5 L 50 50.5 L 50.5 49 Z " /><path fill="rgb(112,112,112)" stroke="rgb(112,112,112)" stroke-width="1" opacity="1" d="M 57.5 52 L 58 54.5 L 57 54.5 L 57.5 52 Z " /><path fill="rgb(112,112,112)" stroke="rgb(112,112,112)" stroke-width="1" opacity="1" d="M 55.5 57 Q 57.8 56.3 57 58.5 L 57.5 60 L 55.5 57 Z " /><path fill="rgb(112,112,112)" stroke="rgb(112,112,112)" stroke-width="1" opacity="1" d="M 40.5 59 Q 42.8 58.3 42 60.5 L 40.5 59 Z " /><path fill="rgb(112,112,112)" stroke="rgb(112,112,112)" stroke-width="1" opacity="1" d="M 57.5 61 L 58 64 L 56 63.5 L 57.5 61 Z " /><path fill="rgb(112,112,112)" stroke="rgb(112,112,112)" stroke-width="1" opacity="1" d="M 59.5 61 L 62 61.5 L 61.5 64 Q 59.3 64.8 60 62.5 L 59.5 61 Z " /><path fill="rgb(0,0,0)" stroke="rgb(0,0,0)" stroke-width="1" opacity="1" d="M 6.5 0 L 5.5 2 L 6.5 0 Z " /><path fill="rgb(0,0,0)" stroke="rgb(0,0,0)" stroke-width="1" opacity="1" d="M 1.5 1 L 4 2.5 L 2.5 2 L 1.5 1 Z " /><path fill="rgb(0,0,0)" stroke="rgb(0,0,0)" stroke-width="1" opacity="1" d="M 24.5 3 L 27 3.5 Q 24.9 6.8 24.5 3 Z " /><path fill="rgb(0,0,0)" stroke="rgb(0,0,0)" stroke-width="1" opacity="1" d="M 58.5 4 L 59.5 6 L 58.5 4 Z " /><path fill="rgb(0,0,0)" stroke="rgb(0,0,0)" stroke-width="1" opacity="1" d="M 5.5 8 L 4.5 10 L 5.5 8 Z " /><path fill="rgb(0,0,0)" stroke="rgb(0,0,0)" stroke-width="1" opacity="1" d="M 3.5 18 L 6 19.5 L 5.5 21 L 5 19 L 3.5 18 Z " /><path fill="rgb(0,0,0)" stroke="rgb(0,0,0)" stroke-width="1" opacity="1" d="M 1.5 23 L 2 25.5 L 1 25.5 L 1.5 23 Z " /><path fill="rgb(0,0,0)" stroke="rgb(0,0,0)" stroke-width="1" opacity="1" d="M 45.5 26 L 44.5 28 L 45.5 26 Z " /><path fill="rgb(0,0,0)" stroke="rgb(0,0,0)" stroke-width="1" opacity="1" d="M 34.5 27 L 38 28.5 L 34.5 28 L 33 29.5 L 31.5 32 L 32 30.5 L 34.5 27 Z " /><path fill="rgb(0,0,0)" stroke="rgb(0,0,0)" stroke-width="1" opacity="1" d="M 26.5 29 L 25.5 31 L 26.5 29 Z " /><path fill="rgb(0,0,0)" stroke="rgb(0,0,0)" stroke-width="1" opacity="1" d="M 45.5 29 Q 47.8 28.3 47 30.5 L 42.5 36 L 41 35.5 L 43 35 L 46 30.5 L 45.5 29 Z " /><path fill="rgb(0,0,0)" stroke="rgb(0,0,0)" stroke-width="1" opacity="1" d="M 43.5 30 L 41.5 33 L 41 31 L 43.5 30 Z " /><path fill="rgb(0,0,0)" stroke="rgb(0,0,0)" stroke-width="1" opacity="1" d="M 33.5 33 L 36 34.5 L 34.5 34 L 33.5 33 Z " /><path fill="rgb(0,0,0)" stroke="rgb(0,0,0)" stroke-width="1" opacity="1" d="M 23.5 34 L 23.5 37 Q 20.5 35.5 23.5 34 Z " /><path fill="rgb(0,0,0)" stroke="rgb(0,0,0)" stroke-width="1" opacity="1" d="M 33.5 35 L 33 36.5 L 32.5 38 L 32 36.5 L 33.5 35 Z " /><path fill="rgb(0,0,0)" stroke="rgb(0,0,0)" stroke-width="1" opacity="1" d="M 3.5 36 L 4 37.5 L 2.5 40 L 2 38.5 L 3.5 36 Z " /><path fill="rgb(0,0,0)" stroke="rgb(0,0,0)" stroke-width="1" opacity="1" d="M 35.5 36 L 36.5 38 L 35.5 36 Z " /><path fill="rgb(0,0,0)" stroke="rgb(0,0,0)" stroke-width="1" opacity="1" d="M 11.5 41 L 11 42.5 Q 10.3 44.8 12.5 44 L 12.5 45 L 10 43.5 L 11.5 41 Z " /><path fill="rgb(0,0,0)" stroke="rgb(0,0,0)" stroke-width="1" opacity="1" d="M 35.5 42 L 37 45.5 L 36 45.5 L 35.5 42 Z " /><path fill="rgb(0,0,0)" stroke="rgb(0,0,0)" stroke-width="1" opacity="1" d="M 40.5 42 L 41.5 44 L 40.5 42 Z " /><path fill="rgb(0,0,0)" stroke="rgb(0,0,0)" stroke-width="1" opacity="1" d="M 6.5 44 L 9 44.5 Q 6.9 47.8 6.5 44 Z " /><path fill="rgb(0,0,0)" stroke="rgb(0,0,0)" stroke-width="1" opacity="1" d="M 14.5 45 L 13.5 47 L 14.5 45 Z " /><path fill="rgb(0,0,0)" stroke="rgb(0,0,0)" stroke-width="1" opacity="1" d="M 41.5 47 L 42 49.5 L 41.5 51 L 40 48.5 L 41.5 47 Z " /><path fill="rgb(0,0,0)" stroke="rgb(0,0,0)" stroke-width="1" opacity="1" d="M 20.5 48 L 23 49.5 L 21.5 49 L 20.5 48 Z " /><path fill="rgb(0,0,0)" stroke="rgb(0,0,0)" stroke-width="1" opacity="1" d="M 44 50 L 47 51.5 L 44 51.5 L 44 50 Z " /><path fill="rgb(0,0,0)" stroke="rgb(0,0,0)" stroke-width="1" opacity="1" d="M 7.5 53 L 8 54.5 L 6 55.5 L 7.5 53 Z " /><path fill="rgb(0,0,0)" stroke="rgb(0,0,0)" stroke-width="1" opacity="1" d="M 17 53 L 19 53.5 L 17 54.5 L 17 53 Z " /><path fill="rgb(0,0,0)" stroke="rgb(0,0,0)" stroke-width="1" opacity="1" d="M 33.5 53 L 34 56.5 L 33 56.5 L 33.5 53 Z " /><path fill="rgb(0,0,0)" stroke="rgb(0,0,0)" stroke-width="1" opacity="1" d="M 39.5 53 L 39 54.5 L 38.5 56 L 38 54.5 L 39.5 53 Z " /><path fill="rgb(0,0,0)" stroke="rgb(0,0,0)" stroke-width="1" opacity="1" d="M 51.5 53 L 50.5 55 L 51.5 53 Z " /><path fill="rgb(0,0,0)" stroke="rgb(0,0,0)" stroke-width="1" opacity="1" d="M 12.5 55 L 13 58.5 L 12 58.5 L 12.5 55 Z " /><path fill="rgb(0,0,0)" stroke="rgb(0,0,0)" stroke-width="1" opacity="1" d="M 48.5 55 L 51 56.5 L 49.5 57 L 48.5 55 Z " /><path fill="rgb(0,0,0)" stroke="rgb(0,0,0)" stroke-width="1" opacity="1" d="M 26.5 56 L 30 58.5 L 28.5 59 L 26.5 56 Z " /><path fill="rgb(0,0,0)" stroke="rgb(0,0,0)" stroke-width="1" opacity="1" d="M 23.5 58 L 22.5 60 L 23.5 58 Z " /><path fill="rgb(0,0,0)" stroke="rgb(0,0,0)" stroke-width="1" opacity="1" d="M 26.5 59 L 28.5 62 L 26.5 59 Z " /><path fill="rgb(0,0,0)" stroke="rgb(0,0,0)" stroke-width="1" opacity="1" d="M 0.5 60 L 2 62.5 L 1 62.5 L 0.5 60 Z " /><path fill="rgb(0,0,0)" stroke="rgb(0,0,0)" stroke-width="1" opacity="1" d="M 36.5 60 Q 38.8 59.3 38 61.5 L 36.5 60 Z " /><path fill="rgb(0,0,0)" stroke="rgb(0,0,0)" stroke-width="1" opacity="1" d="M 23.5 61 L 25 61.5 L 21.5 64 L 23.5 61 Z " /><path fill="rgb(0,0,0)" stroke="rgb(0,0,0)" stroke-width="1" opacity="1" d="M 31 61 L 33 61.5 L 31 62.5 L 31 61 Z " /><path fill="rgb(0,0,0)" stroke="rgb(0,0,0)" stroke-width="1" opacity="1" d="M 35.5 62 L 36.5 64 L 35.5 62 Z " /><path fill="rgb(0,0,0)" stroke="rgb(0,0,0)" stroke-width="1" opacity="1" d="M 47.5 62 L 48.5 64 L 47.5 62 Z " /><path fill="rgb(0,0,0)" stroke="rgb(0,0,0)" stroke-width="1" opacity="1" d="M 58.5 62 L 59.5 64 L 58.5 62 Z " /></svg>